<svg id="Camada_1" xmlns="http://www.w3.org/2000/svg" viewBox="0 0 445.42 394.93"><defs><style>
      .cls-1 {
        fill: #65aea6;
        stroke-width: 0px;
      }
    </style></defs><path class="cls-1" d="M243.26,87.59c.56.57,1.22,1.19,1.82,1.87,3.9,4.35,4.59,10.94,1.63,15.56-3.55,5.54-9.3,7.81-15.05,5.95-5.72-1.86-9.64-7.41-9.42-13.35.27-7.19,5.86-12.74,12.98-12.99.59-.02,1.46-.6,1.7-1.14,3.02-6.84,5.93-13.73,8.9-20.6.41-.95.19-1.56-.67-2.15-5.55-3.83-11.06-7.73-16.65-11.51-.61-.41-1.75-.53-2.44-.26-6.05,2.38-12.07,4.84-18.05,7.39-.66.28-1.23,1.24-1.46,2-1.38,4.62-3.93,8.31-8.51,10.06-4.73,1.81-9.37,1.43-13.3-2.1-3.96-3.56-5.2-8.13-4.19-13.26,1.04-5.27,4.33-8.78,9.49-9.97,5.15-1.19,9.68.52,13.01,4.65,1.2,1.48,2.15,1.66,3.77.98,5.95-2.48,11.96-4.79,17.89-7.29,2.3-.97,4.2-.88,6.29.62,6.37,4.57,12.87,8.96,19.28,13.47,1.02.72,1.67.77,2.64-.15,2.59-2.48,5.38-4.75,7.94-7.26.73-.72,1.24-1.92,1.34-2.95.13-1.42-.13-2.92-.42-4.34-.13-.63-.63-1.4-1.18-1.71-6.84-3.86-12.4-9.37-18.51-14.16-10.68-8.36-24.46-8.49-35.29-.23-4.54,3.46-8.85,7.23-13.42,10.65-2.77,2.07-5.79,3.8-8.77,5.57-4.48,2.65-7.44,6.61-9.58,11.19-2.67,5.69-6.74,10.22-11.29,14.4-.67.61-1.3,1.03-.66,2.09,1.82,3.01,3.69,6.01,5.32,9.13,2.32,4.46,5.99,7.3,10.29,9.71,5.25,2.94,9.62,6.98,11.62,12.84.86,2.52,1.15,5.34,1.17,8.03.03,3.53-2.47,5.7-6.02,5.69-2.73,0-5.47-.13-8.2-.2-1.46-.04-2.12.63-2.4,2.12-1.62,8.61-.58,16.98,2.33,25.13,3.13,8.75,6.47,17.42,9.72,26.13.67,1.78,1.73,2.23,3.61,1.56,4.06-1.45,8.06-3.09,12.18-4.36,12.48-3.86,25.09-4.37,37.77-.96,3.93,1.06,7.83,2.25,11.78,3.22,4.78,1.17,5.65.2,4.09-4.53-1.89-5.71-4.01-11.34-5.89-17.06-2.46-7.48-4.52-15.07-3.35-23.07,1.21-8.27,4.47-15.73,9.23-22.56,1.15-1.65,2.16-3.39,3.38-4.97,2.05-2.65,4.77-4.49,7.83-5.8,4.02-1.73,7.05-4.49,8.99-8.42,1.47-3,3.02-5.97,4.27-9.06,2.11-5.21,5.14-9.77,9.06-13.77.72-.73,1.5-1.41,2.36-2.21-2.59-3.02-5.09-5.82-7.48-8.71-2.98-3.61-5.86-7.3-8.8-10.94-2.13-2.64-3.05-5.79-3.71-9.02-.29-1.4-.84-2.28-2.28-2.91-7.31-3.22-10.11-11.86-5.79-18.3,2.57-3.84,6.49-5.74,11.17-5.22,4.57.5,7.97,2.97,9.74,7.26,2.25,5.45.38,11.49-4.52,14.82-1.25.85-1.4,1.6-1.04,3,1.19,4.61,3.59,8.41,6.88,11.82,3.24,3.36,6.22,6.98,9.3,10.5,2.21,2.52,2.24,2.59,5.1.9,4.41-2.61,9.13-4.27,14.18-4.97,7.41-1.03,14.41.51,21.06,3.72,2.83,1.37,5.61,2.93,8.19,4.73,3.31,2.32,4.63,5.71,3.98,9.73-.9,5.6-3.67,10.36-6.72,15.03-5.84,8.94-13.74,15.52-23.15,20.36-5.41,2.78-11.15,4.42-17.25,3.25-2.87-.55-5.65-1.77-8.35-2.97-2.61-1.16-3.68-1.1-5.07,1.4-2.82,5.08-4.33,10.62-4.48,16.38-.15,5.95.18,11.92.35,17.87.31,11.26-2.44,21.78-7.48,31.8-2.02,4.01-3.56,8.26-5.4,12.36-1.09,2.44-.42,4.81.19,7.13,1.73,6.59,1.19,13.29,1.12,19.97-.02,1.75-.19,3.53-.54,5.25-1.28,6.32-5.4,10.1-11.79,10.95-.78.1-1.57.24-2.35.29-3.43.24-6.38,1.39-8.51,4.25-2.8,3.76-6.67,5.71-11.25,5.92-7.59.35-15.2.42-22.8.63-5.42.15-9.93-1.99-13.87-5.53-3.37-3.04-7.05-4.77-11.85-4.59-5.07.19-8.24-3.1-10.12-7.59-1.46-3.47-2.04-7.13-1.91-10.88.24-6.86.57-13.72.83-20.59.15-3.9-1.51-7.35-2.87-10.85-2.12-5.44-4.54-10.76-6.48-16.26-2.38-6.74-3.42-13.81-3.74-20.93-.25-5.58-.28-11.19-.08-16.78.25-7.18-2.17-13.62-5.05-19.96-.84-1.84-2.67-1.96-5.04-1.03-3.49,1.38-7,2.84-10.64,3.64-5.92,1.3-11.57-.2-16.96-2.78-9.47-4.52-17-11.33-22.65-20.07-2.71-4.2-4.81-8.85-6.79-13.46-1.95-4.54-.8-8.81,3.11-11.75,9.68-7.27,20.26-10.89,31.99-5.4,4.4,2.06,8.22,5.35,12.27,8.15,2.2,1.52,4.27,3.21,6.46,4.75,3.09,2.18,6.18,1.87,8.92-.74,2.88-2.74,4.68-6.19,6.41-9.68.51-1.03,1.08-2.04,1.57-3.09,3.12-6.77,8.35-11.38,14.88-14.72,6.24-3.19,11.22-8.05,16.52-12.51,12.81-10.78,28.01-12.51,41.38-5.12,4.9,2.71,9.22,6.51,13.59,10.08,3.65,2.97,7.39,5.75,11.65,7.76,1.89.89,2.93,2.31,3.06,4.38.19,2.9.07,5.86.61,8.69.94,4.96-2.37,7.39-5.41,10.05-2.43,2.12-4.92,4.16-7.35,6.28-2.46,2.15-4.29,4.71-5.58,7.76-2.67,6.32-5.56,12.54-8.37,18.84ZM185.81,197.44c.21,2.9.25,5.22.58,7.5.51,3.47,2.55,6.7,7.64,5.63,5.53-1.16,11.06-2.3,16.6-3.41,11.4-2.28,22.71-1.92,33.94,1.15,3.56.98,7.17,2.03,10.82,2.39,4.46.44,7.66-2.29,7.87-6.75.21-4.58.1-9.26-.58-13.79-.76-5.11-3.45-9.42-8.05-12.05-9.18-5.24-19.05-8.09-29.7-8.22-9.64-.12-18.81,1.69-27.59,5.73-6.07,2.79-9.84,7.19-10.7,13.88-.36,2.83-.6,5.67-.83,7.94ZM199.67,56.37c.03-3.63-2.96-6.78-6.46-6.8-3.52-.02-6.35,2.91-6.38,6.6-.03,3.38,3.19,6.65,6.49,6.61,3.48-.04,6.32-2.9,6.35-6.4ZM235.31,104.52c3.51-.02,6.36-2.87,6.37-6.39.01-3.5-3.01-6.62-6.4-6.61-3.29.01-6.21,3.25-6.19,6.84.02,3.19,3.04,6.17,6.22,6.16ZM278.73,12.06c.02-2.92-1.82-5.11-4.27-5.08-3.29.04-5.18,1.96-5.17,5.25,0,2.73,2.17,4.93,4.8,4.9,2.59-.03,4.62-2.24,4.64-5.07Z"></path><path class="cls-1" d="M115.77,197.99c.79-1.32,1.5-2.65,2.34-3.89,1.19-1.76,2.37-3.55,3.74-5.17,1.04-1.23.9-2.13.04-3.37-4.13-5.93-8.2-11.91-12.26-17.89-1.97-2.9-2.46-5.82-.99-9.27,2.17-5.08,3.81-10.38,5.79-15.55.48-1.26-.19-1.55-1.01-2.07-8.54-5.42-8.71-15.69-1.78-21.61,5.33-4.55,14.06-3.65,18.49,1.82,4.87,6.01,4.15,14.34-1.75,18.8-1.37,1.03-3.12,1.54-4.63,2.4-.66.38-1.45.91-1.7,1.56-2.29,5.82-4.5,11.68-6.66,17.56-.22.59-.2,1.52.13,2.01,3.99,5.89,8.05,11.72,12.1,17.57.06.09.2.13.55.33,10.13-10.5,20.66-20.63,34.14-27.07-3.09,3.35-4.65,7.56-6.46,11.56-1.82,4.03-3.34,8.24-4.45,12.51-1.92,7.38,0,14.18,3.97,20.54,2.15,3.45,4.35,6.91,6.09,10.58,2.32,4.86,2.12,9.7-1,14.36-2.19,3.27-4.22,6.67-6.03,10.17-1.73,3.35-1.72,7.08-1.15,10.73.47,3.03,2.71,4.93,4.97,6.74,6.72,5.37,14.33,9.19,22.29,12.26,5.15,1.98,10.52,3.37,15.8,5.01.27.08.57.09,1.12-.19-1.09-1.16-2.02-2.53-3.29-3.44-3.9-2.79-7.9-5.44-11.91-8.07-5.5-3.62-10.15-7.96-12.32-14.4-1.2-3.56-.87-7.18-.45-10.83.58-5.06,1.03-10.14,1.55-15.2.02-.22.1-.43.24-1.01,1.06,1.16,2.01,2.05,2.78,3.07,3.08,4.07,7.1,7.11,11.55,9.33,8.9,4.44,15.58,11.3,21.89,18.7,5.84,6.86,9.78,14.77,12.88,23.13.6,1.61,1.33,2.29,3.13,2.16,2.66-.2,5.35-.15,8.03-.07,1.42.04,1.83-.45,1.91-1.87.29-5.78.91-11.51,2.97-17,3.01-8.05,8.31-14.27,15.46-18.85,4.7-3.02,9.59-5.75,14.52-8.39,6.33-3.4,9.78-8.79,11.12-15.62.82-4.17,1.27-8.41,1.97-12.61.24-1.43.71-2.83,1.15-4.21.11-.35.52-.79.84-.83.29-.03.78.37.92.69,4.26,9.88,8.62,19.71,9.98,30.56,1.44,11.45-3.66,19.27-14.14,23.25-9.61,3.65-16.32,10.32-21.32,19.03-.48.83-.83,1.74-1.02,3.13,3.97-.95,7.99-1.71,11.89-2.89,8.33-2.53,16.55-5.44,24.11-9.82,6.3-3.66,12.33-7.77,18.5-11.64,1.01-.63,1.16-1.35,1.14-2.54-.17-6.99-.21-13.98-.23-20.97-.03-9.43-.02-18.85-.02-28.28,0-11.8,0-23.61.03-35.41,0-2.97.01-5.95.15-8.92.05-1.16-.42-1.58-1.41-1.95-8.58-3.21-11.51-13.13-6.04-20.36,4.25-5.62,12.64-6.58,18.64-2.14,5.46,4.04,6.68,12.21,2.72,17.81-1.48,2.09-3.21,3.83-5.67,4.66-1.14.38-1.2,1.18-1.19,2.15.03,10.47.06,20.93.06,31.4.01,18.62.01,37.24.02,55.86,0,.58.05,1.16.07,1.74.22.16.44.32.66.48,3.31-3.52,6.67-7.01,9.9-10.61.48-.53.49-1.61.49-2.43-.01-11.91-.1-23.82-.09-35.74,0-7.35.16-14.71.15-22.06,0-.74-.56-1.82-1.18-2.15-6.49-3.43-7.01-15.1-.06-19.5,4.38-2.78,8.64-2.91,12.83-.21,4.19,2.71,6.12,6.85,5.26,11.79-.75,4.33-3.35,7.5-7.64,9.01-.95.33-1.83.55-1.83,1.87.03,9.9.02,19.81.02,30.13,2.51-2.7,4.75-5.13,7.01-7.55,2.66-2.84,5.29-5.72,8.01-8.5,1.27-1.3,1.81-2.72,1.8-4.55-.06-11.74-.05-23.49-.04-35.23,0-6.75.03-13.51.14-20.26.02-1.06-.27-1.45-1.21-1.84-6.25-2.58-9.8-8.96-8.3-15.34,1.1-4.71,4.16-7.97,8.75-9.51,4.68-1.57,9.03-.76,12.73,2.63,7.08,6.48,5.69,17.24-2.85,21.71-1.38.72-1.89,1.48-1.87,3.05.14,9.86.19,19.72.2,29.57,0,7.6-.1,15.21-.12,22.81,0,1.46.07,2.92.2,4.37.19,2.16-.65,3.83-2.09,5.41-7.31,8.06-14.58,16.15-21.79,24.3-.56.64-.82,1.74-.83,2.64-.08,5.48,0,10.95-.09,16.43-.02.94-.42,2.08-1.03,2.78-13.31,15.05-29.02,26.89-47.31,35.33-13.15,6.06-26.9,9.87-41.2,11.87-19.04,2.66-37.83,1.5-56.43-3.37-20.69-5.42-38.37-16.02-53.59-30.87-9.9-9.66-17.6-20.89-23.24-33.52-.22-.5-.54-1.03-.53-1.54.06-2.67-1.71-4.37-3.29-6.08-5.54-5.98-11.19-11.85-16.74-17.81-1.14-1.23-2.17-1.4-3.83-.98-5.36,1.35-10.35.5-14.13-3.88-3.88-4.5-4.41-9.61-1.85-14.95,2.07-4.31,8.45-7.73,13.09-7.15,5.55.69,10.12,4.75,11.48,10.09.79,3.13.5,6.12-.63,9.11-.21.54-.09,1.52.29,1.92,5.72,6.14,11.52,12.21,17.3,18.3.08.08.22.1.64.27ZM91.75,171.78c.02-3.74-2.66-6.54-6.31-6.6-3.58-.05-6.54,2.88-6.51,6.45.03,3.64,3.01,6.63,6.61,6.63,3.54,0,6.19-2.76,6.21-6.48ZM126.47,129.22c0-3.5-3-6.38-6.6-6.35-3.47.03-6.3,2.84-6.3,6.24,0,3.81,2.83,6.6,6.71,6.62,3.4.01,6.2-2.93,6.19-6.51ZM308.1,134.48c-.09,3.34,2.82,6.27,6.37,6.43,3.33.15,6.32-2.82,6.41-6.37.08-3.52-2.77-6.54-6.31-6.68-3.59-.15-6.36,2.69-6.46,6.62ZM357.73,101.64c-3.77-.06-6.51,2.57-6.59,6.3-.07,3.43,2.74,6.4,6.09,6.44,3.38.04,6.37-2.69,6.45-5.87.09-3.92-2.42-6.82-5.94-6.87ZM330.6,155.34c0,2.76,1.79,4.76,4.21,4.73,2.82-.04,4.8-2.01,4.82-4.79.02-2.7-2.11-4.7-4.95-4.66-2.19.03-4.08,2.23-4.08,4.73Z"></path><path class="cls-1" d="M194.39,347.54c1.75-.82,3.17-1.65,4.69-2.18,8.96-3.12,17.5-2.84,24.93,3.78,3.94,3.51,5.99,8.21,6.16,13.42.31,9.79.28,19.58.38,29.38.01,1.04-.14,2-1.53,2-4.68-.01-9.35-.05-14.03-.02-1.31,0-1.82-.47-1.82-1.81-.02-7.48-.1-14.96-.17-22.44,0-1.03.01-2.07-.04-3.1-.25-5.16-3.04-8.13-8.19-8.4-6.18-.32-10.65,4.19-10.49,9.58.24,7.9.03,15.82.11,23.73.02,1.8-.53,2.44-2.39,2.39-4.26-.11-8.52.02-12.78,0-2.37-.01-2.41-.12-2.4-2.51.09-17.4.17-34.8.25-52.2.01-2.92-.01-5.84-.01-8.76,0-2.14.2-2.36,2.42-2.34,2.92.03,5.83.17,8.75.17,1.32,0,2.64-.21,3.95-.41,1.42-.22,2.2.42,2.21,2.08.03,5.17,0,10.34,0,15.51,0,.6,0,1.2,0,2.14Z"></path><path class="cls-1" d="M76.45,373.28c1.38,4.49,4.38,6.83,9.05,7.25,4.75.43,9.36-.06,13.69-2.19,1.4-.69,2.36-.4,3.32.77,1.77,2.17,3.61,4.27,5.47,6.36.88.99.81,1.67-.25,2.54-6.22,5.09-13.41,6.95-21.28,6.43-8.05-.53-15.43-2.83-21.14-8.91-12.53-13.37-6.18-35.97,11.49-40.78,8.9-2.42,17.51-1.75,25.37,3.45,6.14,4.07,9.18,10.04,9.72,17.32.13,1.76,0,3.53.08,5.29.07,1.72-.72,2.4-2.41,2.38-4.98-.06-9.97-.06-14.95-.07-5.53-.01-11.05-.01-16.58,0-.47,0-.93.1-1.56.16ZM96.18,364.61c.66-4.24-3.46-8.2-8.84-8.55-6.44-.42-10.87,2.9-11.24,8.55h20.09Z"></path><path class="cls-1" d="M37.61,393.88c-3.41,0-6.5,0-9.59,0-2.07,0-4.14.01-6.2-.02-2.38-.03-2.41-.05-2.41-2.5-.01-8.21,0-16.42,0-24.63,0-6.39-.06-12.77.01-19.16.02-1.63-.57-2.07-2.12-2.05-5.05.08-10.1-.01-15.14.06-1.67.02-2.22-.56-2.15-2.25.14-3.34.15-6.69.03-10.03-.06-1.79.42-2.43,2.33-2.41,13.14.1,26.28.09,39.42.1,4.44,0,8.88.02,13.32-.04,1.39-.02,1.92.39,1.86,1.88-.13,3.64-.13,7.29-.09,10.93.01,1.38-.39,1.92-1.88,1.89-5.23-.11-10.46-.03-15.69-.12-1.45-.02-1.76.38-1.75,1.87.09,13.02.05,26.03.06,39.05,0,2.36,0,4.72,0,7.43Z"></path><path class="cls-1" d="M169.63,355.48c-4.51,2.99-8.79,5.84-13,8.63-1.53-1.61-2.87-3.36-4.54-4.69-3.11-2.47-6.75-2.84-10.31-1.26-3.79,1.68-6.11,4.74-6.54,8.99-.4,3.87.02,7.56,2.86,10.53,3.64,3.81,10.18,4.36,14.56,1.21,1.22-.88,2.44-1.86,3.37-3.03.75-.93,1.26-.88,2.09-.32,3.51,2.39,7.06,4.74,10.53,7.19.29.2.39,1.25.15,1.54-5.63,6.66-12.66,10.38-21.56,10.37-6.4-.01-12.48-1.09-17.87-4.71-8.46-5.69-12.58-13.63-11.29-23.82,1.29-10.21,7.13-17.29,16.82-20.57,11.78-3.98,22.66-2.22,31.85,6.75.91.88,1.7,1.88,2.88,3.18Z"></path><path class="cls-1" d="M336.31,366.06c1.07-8.97-2.75-14.72-12.1-15.28-5.78-.35-11.14.78-15.61,4.78-.22.2-.54.48-.77.44-2.18-.33-2.73-2.34-3.78-3.81-.69-.97-.26-1.68.55-2.33,3.25-2.63,6.99-4.12,11.08-4.8,5.15-.86,10.28-1.08,15.37.34,7.61,2.12,11.89,7.26,12.63,14.98.53,5.55.32,11.17.41,16.76.07,4.99.05,9.98.16,14.96.03,1.4-.42,1.98-1.84,2.03-6.03.22-4.77.2-5.19-4.51-.04-.48-.05-.96-.09-1.66-.37.24-.64.34-.81.54-2.4,2.66-5.4,4.39-8.82,5.21-6.88,1.64-13.68,1.75-19.8-2.51-4.51-3.14-6.65-7.66-5.9-13.09.83-6.03,4.63-9.68,10.43-11.39,5.49-1.62,11.1-1.03,16.67-1.05,2.47,0,4.95.25,7.41.39ZM336.66,375.87c0-.75-.07-1.31.01-1.84.27-1.85-.56-2.53-2.34-2.48-1.33.03-2.67-.15-4-.18-5.09-.12-10.21-.61-15.2.92-3.29,1.01-5.73,2.98-5.98,6.55-.25,3.57,1.18,6.54,4.49,8.32,3.42,1.84,7.12,2.03,10.82,1.36,6.14-1.12,12.48-4.01,12.2-12.64Z"></path><path class="cls-1" d="M424.94,372.15c-5.47,0-10.94-.01-16.41,0-2.28,0-2.42.22-1.99,2.46,1.45,7.54,8.33,13.27,16.23,13.57,5.28.21,10.13-.77,14.19-4.48,1.72-1.57,2.96-1.21,4.01.92,1.83,3.68,1.88,3.05-1.23,5.31-11.09,8.02-29.03,5.86-36.8-6.05-6.72-10.31-5.76-27.34,6.54-35.61,3.17-2.13,6.77-3.22,10.61-3.57,8.23-.75,15.12,1.76,20.28,8.33,3.79,4.83,5.48,10.37,4.95,16.53-.18,2.06-1.06,2.64-3.96,2.63-5.11-.01-10.22-.06-15.32-.1-.36,0-.73,0-1.09,0,0,.02,0,.04,0,.06ZM438.54,366.4c-.37-4.32-1.82-7.86-4.61-10.74-4.58-4.73-10.18-5.93-16.39-4.1-6.19,1.83-9.56,6.35-11.05,12.42-.55,2.24-.36,2.39,1.92,2.39,8.87,0,17.73.01,26.6.02,1.13,0,2.27,0,3.54,0Z"></path><path class="cls-1" d="M238.68,361.47c-.09-8.93,4.21-17.08,12.22-23.33,10.69-8.35,27.95-8.75,39.06-.94,1.27.9,2.39,2.06,3.43,3.23.35.39.52,1.37.28,1.79-1.5,2.6-4.77,4.2-7.28,1.35-2.62-2.98-6.5-4.04-10.29-4.62-6.79-1.05-13.28-.27-19.23,3.65-9.84,6.47-12.91,18.08-9.58,28.25,3.51,10.7,13.05,17.18,24.35,17.11,3.71-.02,7.32-.51,10.65-2.08,1.99-.94,3.81-2.31,5.56-3.68,1.55-1.22,3.53-1.06,5.29.74,1.38,1.4,1.37,2.46-.22,4.06-3.81,3.82-8.51,6.01-13.74,7.09-11.05,2.29-21.08-.01-29.71-7.29-7.35-6.19-10.82-14.33-10.79-25.32Z"></path><path class="cls-1" d="M370.84,352.66c1.68-1.45,2.89-2.54,4.15-3.58,2.75-2.26,6.03-3.46,9.45-4.05,1.46-.25,3.4.07,4.54.92.69.51.63,2.65.23,3.83-.31.93-1.55,1.81-2.56,2.18-1.51.55-3.19.63-4.8.9-5.45.93-10.5,7.64-10.7,13.55-.23,6.55-.12,13.11-.16,19.67-.01,1.88,0,3.77-.09,5.64-.07,1.68-1.63,2.82-3.62,2.76-2.06-.07-3.55-1.38-3.54-3.11.09-13.18.18-26.37.27-39.55,0-1.27-.06-2.55-.04-3.82.03-1.92,1.23-3.16,3.13-3.29,1.89-.13,3.37.95,3.68,2.78.13.77.06,1.57.06,2.36,0,.77,0,1.54,0,2.81Z"></path><path class="cls-1" d="M194.91,189.89c.21-1.8.29-3.63.64-5.41.67-3.36,2.9-4.79,6.27-4.13,3.62.71,6.38,2.89,8.91,5.37,2,1.96,3.77,4.06,4.27,7.02.65,3.87-1.2,7.9-4.66,9.64-4.02,2.01-8.81,1.37-11.5-1.39-3.02-3.12-3.69-6.98-3.94-11.09ZM202.73,187.5c-.8,1.59.59,5.98,2.13,6.42.3.09,1.1-.49,1.18-.86.34-1.65-1.53-4.66-3.31-5.56Z"></path><path class="cls-1" d="M253.83,189.22c-.19,4.27-.12,8.42-3.34,11.72-2.89,2.96-6.43,2.69-9.88,1.94-3.29-.71-5.25-3.03-5.85-6.47-.97-5.57.87-10.11,5.73-13.08,2.05-1.25,4.28-2.33,6.58-2.99,3.62-1.03,5.54.4,6.16,4.12.27,1.62.42,3.25.6,4.75ZM247.58,188.14c-.15-.12-.29-.23-.44-.35-1.16.83-2.35,1.61-3.46,2.5-.34.27-.69.82-.67,1.22.05.89.33,1.77.51,2.65.88-.54,2.1-.88,2.56-1.66.76-1.3,1.03-2.89,1.5-4.36Z"></path></svg>
